<?xml version="1.0" encoding="utf-8"?>
<!-- Generator: Adobe Illustrator 26.0.1, SVG Export Plug-In . SVG Version: 6.00 Build 0)  -->
<svg version="1.1" id="Layer_1" xmlns="http://www.w3.org/2000/svg" xmlns:xlink="http://www.w3.org/1999/xlink" x="0px" y="0px"
	 viewBox="0 0 80 80" style="enable-background:new 0 0 80 80;" xml:space="preserve">
<g>
	<path d="M80,33.6c0,6.3,0,12.6,0,18.9c-0.2,0.1-0.5,0.2-0.7,0.3C72,56.4,64.8,60,57.5,63.6c-0.3,0.1-0.5,0.3-0.7,0.4
		c0,2.6-1.4,4-3.9,4.4c-0.3,2.3-1.6,3.5-3.9,3.8c-0.3,2.3-1.6,3.6-3.9,3.9c0,0.1-0.1,0.2-0.1,0.3c-0.5,3.4-4.4,4.5-6.7,2.5
		c-0.4-0.3-0.7-0.6-1.1-1c-1.3,0.8-2.7,0.9-4,0.2c-1.4-0.7-2.1-1.9-2.3-3.4c-2.3-0.3-3.6-1.6-3.9-3.9c-2.3-0.3-3.6-1.6-3.9-3.9
		c-2.3-0.3-3.6-1.7-3.9-3.9c-1.3-0.8-2.5-1.5-3.8-2.3c-0.2,0.4-0.3,0.7-0.4,1c-1.4,0-2.6,0-3.9-0.4c-3.5-1.2-7-2.3-10.5-3.5
		c-0.2-0.1-0.5-0.2-0.7-0.3C0,48.8,0,39.9,0,31c0.5,0,0.9,0,1.3,0c2-0.2,3.8,0.3,5.4,1.5c1.2,0.9,2.6,1.6,3.9,2.3
		c1.2-0.3,2.4-0.6,3.5-0.9c0.2-0.5-0.1-0.7-0.4-1c-1.9-1.5-3-3.4-3.3-5.8c-0.2-1.4-0.1-2.8-0.1-4.1c0.1-4.3,3.3-7.9,7.5-8.6
		c0.6-0.1,1.2-0.1,1.9-0.2C19.3,13,18.8,12,18.4,11c2.3-2.3,4.6-4.6,6.9-6.9c1.3,0.8,2.6,1.7,3.9,2.5c1.7-0.7,3.3-1.4,5-2.1
		c0.3-1.5,0.6-3,0.8-4.6c3.3,0,6.7,0,10,0c0.3,1.6,0.6,3.1,0.9,4.6c1.8,0.7,3.3,1.4,5,2.1c1.3-0.8,2.6-1.7,3.8-2.5
		c2.3,2.3,4.6,4.6,6.9,6.9c-0.4,1-0.9,2-1.3,3.1c0.2,0,0.3,0,0.3,0c3.9,0.1,6.6,2,8.3,5.5c0.8,1.6,0.8,3.4,0.8,5.2
		c0.1,3.4-1.1,6.2-3.9,8.3c0,0.2,0,0.4,0,0.6c2.4,0.6,4.7,1.2,7.1,1.9c1.1-0.6,2.3-1.2,3.6-1.9c0.3-0.1,0.6-0.3,0.9-0.3
		C78.3,33.5,79.1,33.6,80,33.6z M77.4,36.3c-0.4,0.2-0.6,0.3-0.9,0.5c-7.4,3.9-14.7,7.7-22.1,11.6c-1.3,0.7-2.5,0.7-3.7,0.4
		c-2.4-0.7-4.7-1.3-7.1-2c-1.5-0.4-3-0.5-4.4,0.2c-2.4,1.2-4.8,2.4-7.2,3.6c-0.4,0.2-0.7,0.6-0.9,0.9c-0.4,0.7-0.1,1.7,0.4,2.2
		c0.6,0.5,1.4,0.6,2.2,0.2c1.4-0.8,2.9-1.7,4.3-2.6c2.5-1.5,4.7-1.3,6.9,0.7c3.4,3.1,6.9,6.2,10.3,9.2c0.2,0.2,0.4,0.3,0.5,0.4
		c7.2-3.6,14.4-7.2,21.7-10.8C77.4,46,77.4,41.2,77.4,36.3z M37.1,45.1c-1.8-0.8-4.1-1.4-5.8-1.2c-1.7,0.1-3.4,0.4-5.1,0.8
		c-2.2,0.4-4.4,1-6.6,1.4c-1.2,4.1-2.3,8.1-3.5,12.2c1.4,0.8,2.6,1.6,4,2.4c1-1,1.9-2.1,2.9-3c2.3-1.9,5.8-0.7,6.4,2.3
		c0,0.2,0.1,0.4,0.2,0.6c2.5,0.6,3.2,1.3,3.9,3.9c2.2,0.3,3.6,1.6,3.9,3.9c1.1,0.1,2.1,0.5,2.8,1.4c0.9,1.3,2.2,2.1,3.3,3.1
		c0.2,0.2,0.5,0.4,0.8,0.5c0.8,0.4,1.5,0.2,1.9-0.4c0.4-0.6,0.3-1.3-0.4-1.9c-0.5-0.4-1-0.8-1.5-1.3c-1.7-1.4-3.4-2.8-5.1-4.3
		c0.6-0.7,1.1-1.3,1.6-2c0.2,0.2,0.5,0.3,0.7,0.5c2,1.6,4,3.3,5.9,4.9c0.3,0.2,0.6,0.5,0.9,0.6c0.7,0.3,1.4,0,1.8-0.6
		c0.4-0.6,0.2-1.2-0.3-1.8c-0.1-0.1-0.2-0.2-0.3-0.3c-1.3-1.1-2.5-2.1-3.8-3.2c-0.9-0.7-1.7-1.5-2.7-2.2c0.6-0.7,1.1-1.3,1.6-2
		c2.2,1.9,4.4,3.7,6.6,5.5c0.2,0.2,0.4,0.3,0.6,0.5c0.6,0.4,1.5,0.2,1.9-0.3c0.5-0.6,0.4-1.3-0.1-1.9c-0.1-0.2-0.3-0.3-0.5-0.4
		c-3.3-3-6.6-6-9.9-8.9c-1.5-1.3-2.5-1.4-4.1-0.4c-1.4,0.9-2.8,1.7-4.3,2.6c-1.9,1.1-4.1,0.7-5.5-0.9c-1.8-2.2-1.3-5.5,1.2-6.9
		c0.5-0.3,1.1-0.6,1.7-0.9C33.9,46.8,35.4,46,37.1,45.1z M42.6,31.8c0.4-0.2,0.7-0.4,1-0.7c1.7-1.2,2.7-2.9,2.8-5.1
		c0-0.9,0-1.8,0-2.7c0-1.6-0.6-3-1.7-4.3c-1.6-2-4.3-2.7-6.9-1.9c-2.3,0.7-4.1,3-4.3,5.4c-0.1,1.2-0.1,2.3,0,3.5
		c0.1,2.1,1,3.8,2.8,5c0.3,0.2,0.7,0.5,1,0.6c0,1.4,0,2.7,0,4.1c-0.4,0.1-0.7,0.2-1,0.2c-2.1,0.5-4.1,1-6.2,1.6
		c-2,0.5-3.2,2.1-3,4.1c0.3,0,0.6-0.1,0.8-0.1c2.4-0.4,4.9-0.5,7.3,0.2c3,0.8,6,1.9,9.1,2.5c2.4,0.5,4.7,1.3,7,1.9
		c0.5,0.1,1,0.1,1.6,0.2c0-1.8,0.1-3.5,0-5.1c-0.1-2-1.2-3.2-3.1-3.7c-0.8-0.2-1.6-0.4-2.4-0.6c-1.6-0.4-3.1-0.8-4.7-1.2
		C42.6,34.5,42.6,33.1,42.6,31.8z M63.3,31.8c0.3-0.2,0.7-0.4,1-0.6c1.3-0.9,2.2-2,2.5-3.5c0.5-2.2,0.5-4.4-0.2-6.5
		c-0.8-2.5-3.4-4.4-5.9-4.3c-3.6,0-6.3,2.7-6.5,6.2c0,1,0,2,0,3c0.1,2.2,1.1,3.9,2.9,5.2c0.3,0.2,0.6,0.4,0.9,0.6c0,1.4,0,2.7,0,4.1
		c-1.4,0.4-2.9,0.7-4.4,1.1c2.3,2.3,1.8,5.1,1.9,7.9c4.7-2.5,9.4-4.9,14-7.4c0-0.1,0-0.1-0.1-0.2c-2-0.5-4.1-1-6.1-1.5
		C63.3,34.5,63.3,33.1,63.3,31.8z M21.9,31.8c0.3-0.2,0.6-0.4,0.9-0.6c1.6-1.1,2.6-2.6,2.9-4.5c0.1-1.1,0.1-2.2,0.1-3.4
		c0-1.6-0.6-3.1-1.6-4.3c-1.6-1.8-3.6-2.6-6-2.2c-2.4,0.5-4.1,1.9-4.9,4.3c-0.6,1.6-0.4,3.3-0.3,5c0.1,2.1,1.1,3.7,2.8,4.9
		c0.3,0.2,0.7,0.5,1,0.6c0,1.4,0,2.8,0,4.1c-0.9,0.2-1.8,0.5-2.8,0.7c2.3,1.4,4.6,2.7,6.7,4c0,0.9,0,1.8,0,2.7
		c1.3-0.3,2.6-0.6,3.9-0.9c-0.1-2.1,0.4-3.9,1.8-5.4c-1.5-0.4-3-0.8-4.4-1.1C21.9,34.5,21.9,33.2,21.9,31.8z M27.3,19.3
		c1.1,2.1,1.1,4.4,1,6.7c-0.1,3-1.4,5.4-3.8,7.2c0,0.2,0,0.4,0,0.7c1.7,0.4,3.3,0.8,4.9,1.2c0.1,0,0.3,0,0.5,0
		c1.6-0.4,3.2-0.8,4.9-1.2c0-0.3,0-0.5,0-0.7c-1.9-1.6-3-3-3.5-5c-0.5-1.8-0.4-3.7-0.3-5.5c0.3-4.1,3.1-7.4,7-8.2
		c3.9-0.9,7.8,0.9,9.8,4.5c1.6,2.8,1.5,5.8,1,8.7c-0.4,2.3-1.7,4.1-3.6,5.5c0,0.2,0,0.4,0,0.7c1.6,0.4,3.3,0.8,4.9,1.2
		c0.1,0,0.3,0.1,0.5,0c1.6-0.4,3.3-0.8,4.9-1.2c0-0.1,0-0.2,0-0.3c0-0.1,0-0.2,0-0.3c-0.1-0.1-0.3-0.2-0.4-0.4
		c-2-1.6-3.1-3.7-3.3-6.2c-0.2-2.5-0.3-5,0.9-7.4c-2.8-4.8-7-7.5-12.6-7.5C34.4,11.7,30.2,14.4,27.3,19.3z M25.8,16.8
		c3.4-4.9,8-7.7,14.1-7.8c6.1,0,10.8,2.8,14.2,7.7c1-0.6,1.9-1.2,2.8-1.8c0.1-0.1,0.2-0.1,0.2-0.2c0.5-1.1,0.9-2.2,1.3-3.2
		c-1.4-1.4-2.8-2.8-4.2-4.1C53.2,8.2,52,9,50.8,9.7c-2.2-1.4-4.5-2.4-7-2.9c-0.3-1.4-0.6-2.8-0.9-4.2c-1.9,0-3.7,0-5.6,0
		c-0.3,1.4-0.6,2.8-0.9,4.2c-2.6,0.6-4.9,1.5-7.1,2.9c-1.2-0.8-2.4-1.6-3.6-2.3c-1.4,1.4-2.7,2.8-4.2,4.2c0.4,1,0.9,2.1,1.3,3.1
		c0.1,0.1,0.2,0.2,0.3,0.3C24,15.7,24.8,16.2,25.8,16.8z M8.1,57.7c1.6-6.3,3.1-12.5,4.7-18.7c-0.1-0.1-0.2-0.2-0.3-0.2
		c-2.9-1.7-5.7-3.4-8.6-5c-0.3-0.2-0.8-0.2-1.3-0.3c0,7.5,0,14.9,0,22.3C4.4,56.5,6.2,57.1,8.1,57.7z M13.2,59.4
		c1.7-5.8,3.3-11.5,4.9-17.3c-1-0.6-2-1.2-3-1.8c-1.5,6.1-3,12.1-4.6,18.2C11.5,58.8,12.3,59.1,13.2,59.4z M38.6,72.6
		c0-0.3,0-0.6-0.2-0.8c-0.1-0.3-0.3-0.5-0.6-0.6c-0.6-0.3-1.1-0.2-1.6,0.2c-0.8,0.7-1.5,1.4-2.2,2.2c-0.6,0.7-0.7,1.5-0.1,2.1
		c0.6,0.6,1.4,0.6,2.2-0.1c0.7-0.7,1.4-1.4,2.1-2.1c0.2-0.2,0.4-0.5,0.4-0.8C38.6,72.6,38.6,72.6,38.6,72.6z M23.5,64.5
		c0.1,0,0.1,0,0.2,0c0.3-0.1,0.5-0.3,0.8-0.5c0.3-0.3,0.5-0.5,0.8-0.8c0.5-0.5,1.1-1.1,1.6-1.6c0.4-0.5,0.3-1.3-0.2-1.8
		c-0.5-0.5-1.3-0.6-1.8-0.1c-0.9,0.8-1.8,1.7-2.6,2.6c-0.4,0.4-0.3,1-0.1,1.5C22.3,64.2,22.9,64.6,23.5,64.5z M34.8,68.7
		c0.1-0.6-0.2-1.2-0.7-1.4C33.5,67,33,67,32.5,67.4c-0.9,0.8-1.8,1.7-2.6,2.6c-0.5,0.5-0.4,1.2,0,1.7c0.5,0.6,1.4,0.7,2.1,0.1
		c0.8-0.7,1.6-1.5,2.3-2.3C34.6,69.3,34.7,69,34.8,68.7z M26.6,68.1c0.4,0.2,0.8,0.3,1.2,0.1c0.1,0,0.1-0.1,0.2-0.1
		c0.9-0.9,1.8-1.8,2.7-2.7c0.4-0.5,0.3-1.2-0.1-1.7c-0.4-0.5-1.3-0.7-1.8-0.2c-1,0.9-1.9,1.8-2.7,2.8c-0.4,0.4-0.4,1,0,1.4
		C26.2,67.8,26.4,68,26.6,68.1z M41,74.1c-0.6,0.8-1.2,1.4-1.8,2.1c0.4,0.3,0.7,0.7,1.1,0.9c0.6,0.4,1.6,0.2,2-0.3
		c0.4-0.6,0.3-1.3-0.3-1.9C41.7,74.7,41.3,74.4,41,74.1z"/>
</g>
</svg>
