<?xml version="1.0" encoding="utf-8"?>
<!-- Generator: Adobe Illustrator 26.3.1, SVG Export Plug-In . SVG Version: 6.00 Build 0)  -->
<svg version="1.1" id="Layer_1" xmlns="http://www.w3.org/2000/svg" xmlns:xlink="http://www.w3.org/1999/xlink" x="0px" y="0px"
	 viewBox="0 0 80 80" style="enable-background:new 0 0 80 80;" xml:space="preserve">
<g>
	<path d="M70.29,38.3c0,1.1,0,1.95,0,2.8c0,9.87,0,19.75,0,29.62c0,0.87,0.01,1.75-0.1,2.61c-0.36,2.88-1.87,4.24-4.77,4.24
		c-13.8,0.01-27.59,0.01-41.39,0.01c-3.19,0-6.39,0-9.58,0c-4.01-0.01-5.78-1.78-5.78-5.86c-0.02-8.5-0.01-16.99-0.01-25.49
		c0-2.53,0-5.07,0-7.92c-1.54,0-3.02,0.24-4.36-0.08c-1.05-0.25-2.44-1-2.77-1.87c-0.32-0.85,0.17-2.5,0.89-3.18
		c4.11-3.89,8.37-7.63,12.65-11.34c1.04-0.9,1.43-1.81,1.41-3.16c-0.08-3.99-0.05-7.99-0.02-11.98c0.02-2.82,1.29-4.11,4.11-4.2
		c1.74-0.06,3.49-0.04,5.23-0.01c2.84,0.05,3.9,1.1,4.03,3.97c0.04,0.86,0.01,1.72,0.01,3.18c2.61-2.06,4.84-3.82,7.07-5.58
		c2.74-2.16,3.4-2.18,6.01,0.02c11.23,9.43,22.45,18.87,33.67,28.31c0.55,0.47,1.32,0.88,1.55,1.48c0.34,0.87,0.63,2.05,0.29,2.81
		c-0.33,0.74-1.44,1.45-2.29,1.56C74.29,38.46,72.4,38.3,70.29,38.3z M39.91,6.11c-3.58,2.84-6.9,5.53-10.32,8.11
		c-0.58,0.44-1.68,0.67-2.31,0.43c-0.49-0.19-0.71-1.25-0.91-1.97c-0.13-0.47-0.03-1.01-0.03-1.52c0-5.59,0-5.59-5.65-4.92
		c-0.21,0.02-0.4,0.14-0.76,0.28c0,4.53,0.09,9.1-0.06,13.66c-0.04,1.08-0.61,2.41-1.39,3.15c-3.53,3.35-7.21,6.54-10.86,9.75
		c-0.51,0.45-1.2,0.69-1.81,1.03c0.2,0.23,0.39,0.47,0.59,0.7c0.79,0,1.58,0,2.37,0c3.25,0.01,3.39,0.15,3.39,3.5
		c0,10.82,0,21.65,0,32.47c0,3.06,0.24,3.3,3.4,3.31c15.11,0,30.22,0.03,45.33-0.01c6.58-0.02,5.91,1,5.92-5.89
		c0.02-9.52,0.01-19.03,0.01-28.55c0-4.81,0-4.81,4.72-4.83c0.67,0,1.33-0.07,2.39-0.13C62.38,24.99,51.21,15.61,39.91,6.11z"/>
	<path d="M54.9,38.24c0,1.25,0,2.18,0,3.26c2.69-0.39,2.78,1.23,2.67,3.17c-0.11,1.81-0.13,3.64,0.01,5.44
		c0.14,1.9-0.38,2.97-2.62,2.55c0,1.17,0,2.21,0,3.43c2.53-0.46,2.73,1.01,2.62,2.92c-0.12,2.1-0.07,4.21-0.01,6.32
		c0.03,1.24-0.3,1.86-1.69,1.86c-10.6-0.04-21.2-0.03-31.8-0.01c-1.24,0-1.66-0.49-1.64-1.69c0.05-2.32,0.12-4.65-0.02-6.97
		c-0.12-1.9,0.5-2.77,2.61-2.37c0-1.14,0-2.18,0-3.4c-2.65,0.5-2.66-1.19-2.6-3.1c0.08-2.59,0.02-5.18,0.02-7.8
		c1.02-0.15,1.72-0.26,2.58-0.39c0-0.97,0-1.94,0-3.1c-2.76,0.3-2.68-1.57-2.6-3.57c0.08-2.03,0.05-4.07,0.01-6.1
		c-0.02-1.2,0.45-1.69,1.67-1.69c10.6,0.02,21.2,0.02,31.8,0c1.23,0,1.68,0.52,1.65,1.71c-0.04,2.18-0.11,4.36,0.02,6.53
		C57.69,37.19,57.44,38.61,54.9,38.24z M55.69,28.91c-10.62,0-20.96,0-31.32,0c0,2.56,0,4.97,0,7.39c10.54,0,20.88,0,31.32,0
		C55.69,33.79,55.69,31.42,55.69,28.91z M24.33,57.97c0,2.56,0,4.91,0,7.3c10.53,0,20.92,0,31.32,0c0-2.51,0-4.86,0-7.3
		C45.17,57.97,34.84,57.97,24.33,57.97z M55.68,43.5c-10.6,0-20.93,0-31.38,0c0,2.49,0,4.84,0,7.31c10.49,0,20.89,0,31.38,0
		C55.68,48.35,55.68,45.99,55.68,43.5z M52.93,52.86c-8.72,0-17.29,0-25.78,0c0,1.17,0,2.15,0,3.12c8.67,0,17.19,0,25.78,0
		C52.93,54.91,52.93,53.98,52.93,52.86z M52.84,41.51c0-1.22,0-2.19,0-3.15c-8.68,0-17.19,0-25.68,0c0,1.14,0,2.11,0,3.15
		C35.79,41.51,44.25,41.51,52.84,41.51z"/>
	<g>
		<rect x="49.46" y="31.37" width="5.19" height="1.87"/>
		<rect x="42.56" y="31.37" width="5.19" height="1.87"/>
		<rect x="35.66" y="31.37" width="5.19" height="1.87"/>
	</g>
	<g>
		<rect x="49.46" y="46.03" width="5.19" height="1.87"/>
		<rect x="42.56" y="46.03" width="5.19" height="1.87"/>
		<rect x="35.66" y="46.03" width="5.19" height="1.87"/>
	</g>
	<g>
		<rect x="49.46" y="59.83" width="5.19" height="1.87"/>
		<rect x="42.56" y="59.83" width="5.19" height="1.87"/>
		<rect x="35.66" y="59.83" width="5.19" height="1.87"/>
	</g>
</g>
</svg>
