<?xml version="1.0" encoding="utf-8"?>
<!-- Generator: Adobe Illustrator 26.3.1, SVG Export Plug-In . SVG Version: 6.00 Build 0)  -->
<svg version="1.1" id="Layer_1" xmlns="http://www.w3.org/2000/svg" xmlns:xlink="http://www.w3.org/1999/xlink" x="0px" y="0px"
	 viewBox="0 0 80 80" style="enable-background:new 0 0 80 80;" xml:space="preserve">
<g>
	<path d="M50.46,54.74c-0.1-0.02-0.38,0.01-0.51-0.12c-1.99-1.85-3.66-0.01-5.41,0.51c-0.41,0.12-0.72,0.75-0.97,1.2
		c-0.18,0.32-0.1,0.81-0.32,1.08c-1.39,1.78-3.35,0.77-5.05,0.84c-0.55,0.02-1.43-0.91-1.68-1.58c-0.69-1.88-4.2-3.46-5.87-2.39
		c-1.02,0.65-1.83,0.53-2.63-0.28c-0.61-0.62-1.22-1.26-1.86-1.85c-0.98-0.91-1.26-1.82-0.38-3.01c0.31-0.41,0.43-1.16,0.29-1.67
		c-0.29-1.04-0.75-2.06-1.25-3.02c-0.2-0.38-0.7-0.82-1.1-0.86c-1.81-0.19-2.24-1.27-2.12-2.86c0.06-0.76,0.02-1.53,0.01-2.3
		c-0.02-1.1,0.53-1.69,1.58-1.97c2.06-0.55,3.51-4.07,2.46-5.9c-0.11-0.19-0.29-0.37-0.31-0.57c-0.27-2.25,1.82-2.92,2.96-4.18
		c0.37-0.41,1.65-0.4,2.28-0.1c1.8,0.85,5.39-0.51,5.89-2.4c0.06-0.21,0.06-0.45,0.17-0.63c1.29-2.01,3.29-0.88,4.96-1
		c0.58-0.04,1.56,0.79,1.8,1.43c0.81,2.14,4.09,3.58,6.06,2.47c0.14-0.08,0.28-0.21,0.43-0.24c2.29-0.4,2.94,1.75,4.2,2.87
		c0.43,0.38,0.5,1.66,0.21,2.28c-0.91,1.95,0.39,5.43,2.44,5.96c1.14,0.29,1.66,0.94,1.63,2.1c-0.02,0.77-0.05,1.53,0.01,2.3
		c0.11,1.54-0.37,2.52-2.07,2.73c-0.44,0.05-0.95,0.55-1.19,0.97c-0.5,0.91-0.94,1.87-1.18,2.87c-0.13,0.55,0.15,1.22,0.3,1.83
		c0.12,0.46,0.47,0.89,0.48,1.35C54.74,51.57,51.55,54.68,50.46,54.74z M39.95,32.11c-4.31,0.02-7.81,3.52-7.83,7.83
		c-0.02,4.38,3.53,7.93,7.91,7.92c4.31-0.02,7.81-3.52,7.83-7.83C47.88,35.65,44.33,32.09,39.95,32.11z"/>
	<path d="M40.29,1.18c1.72,1.72,3.74,3.76,5.88,5.9c-1.12,0-2.22,0-3.5,0c0,2.26,0,4.35,0,6.55c-1.84,0-3.49,0-5.27,0
		c0-2.11,0-4.16,0-6.37c-1.24,0-2.35,0-3.24,0C36.17,5.26,38.22,3.23,40.29,1.18z"/>
	<path d="M72.77,46.11c0-1.15,0-2.23,0-3.49c-2.18,0-4.28,0-6.45,0c0-1.8,0-3.41,0-5.21c2.1,0,4.19,0,6.44,0c0-1.29,0-2.4,0-3.33
		c2.03,2.04,4.08,4.09,6.02,6.03C77.01,41.88,74.95,43.93,72.77,46.11z"/>
	<path d="M21.26,12.22c-0.95,1-1.73,1.82-2.66,2.8c1.59,1.44,3.16,2.87,4.78,4.34c-1.41,1.38-2.61,2.56-3.98,3.89
		c-1.41-1.55-2.82-3.12-4.29-4.73c-1.04,1-1.86,1.77-2.86,2.72c0-3.13,0-6.02,0-9.01C15.16,12.22,18.03,12.22,21.26,12.22z"/>
	<path d="M67.73,21.53c-0.91-1.28-1.56-2.21-2.34-3.3c-1.81,2.01-3.22,3.58-4.69,5.21c-1.42-1.49-2.57-2.71-3.81-4
		c1.43-1.35,2.96-2.8,4.7-4.45c-1.12-0.92-2-1.64-2.87-2.35c0.08-0.12,0.15-0.25,0.23-0.37c2.88,0,5.76,0,8.76,0
		C67.73,15.15,67.73,18.05,67.73,21.53z"/>
	<path d="M18.03,65.24c1.29,0.94,2.2,1.6,3.46,2.52c-3.39,0-6.25,0-9.24,0c0-2.94,0-5.84,0-8.95c0.8,0.99,1.51,1.85,2.28,2.81
		c1.79-1.94,3.22-3.5,4.73-5.14c1.38,1.57,2.49,2.82,3.64,4.12C21.62,61.83,20.09,63.28,18.03,65.24z"/>
	<path d="M67.76,58.69c0,3.22,0,6.09,0,9.06c-2.96,0-5.83,0-9.04,0c0.93-0.98,1.72-1.81,2.68-2.82c-1.58-1.47-3.14-2.91-4.73-4.39
		c1.35-1.33,2.54-2.51,3.93-3.89c1.42,1.59,2.82,3.18,4.27,4.8C65.91,60.45,66.73,59.67,67.76,58.69z"/>
	<path d="M7.09,37.38c2.35,0,4.41,0,6.55,0c0,1.75,0,3.37,0,5.18c-2.11,0-4.21,0-6.47,0c0,1.3,0,2.41,0,3.51
		c-2.09-2.13-4.09-4.18-5.96-6.09c1.81-1.8,3.88-3.85,5.88-5.85C7.09,34.93,7.09,36.03,7.09,37.38z"/>
	<path d="M37.36,72.9c0-2.36,0-4.41,0-6.57c1.75,0,3.37,0,5.19,0c0,2.07,0,4.17,0,6.43c1.3,0,2.41,0,3.37,0
		c-2.06,2.05-4.11,4.1-6.07,6.06c-1.79-1.8-3.83-3.84-5.9-5.92C34.92,72.9,36.01,72.9,37.36,72.9z"/>
</g>
</svg>
