<?xml version="1.0" encoding="utf-8"?>
<!-- Generator: Adobe Illustrator 26.3.1, SVG Export Plug-In . SVG Version: 6.00 Build 0)  -->
<svg version="1.1" id="Layer_1" xmlns="http://www.w3.org/2000/svg" xmlns:xlink="http://www.w3.org/1999/xlink" x="0px" y="0px"
	 viewBox="0 0 80 80" style="enable-background:new 0 0 80 80;" xml:space="preserve">
<g>
	<path d="M52.55,56.65c-1-3.64-3.29-6.13-6.76-7.56c-0.81-0.33-0.83-0.39-0.15-0.95c0.77-0.63,1.36-1.41,1.84-2.26
		c1.65-2.99,1.68-6.04-0.05-8.98c-1.78-3.03-4.56-4.57-8.05-4.41c-3.9,0.18-6.74,2.2-8.05,5.89c-1.29,3.63-0.48,6.92,2.35,9.63
		c0.79,0.76,0.79,0.76-0.25,1.18c-4.14,1.65-6.85,5.58-6.89,10.03c-0.02,2.77-0.01,5.55-0.01,8.32c0,1.22,0.1,1.31,1.31,1.32
		c3.93,0,7.87,0,11.8,0c1.98,0,3.96,0,5.94,0c2.01,0,4.01,0,6.02,0c1.12,0,1.25-0.12,1.25-1.22c0.01-2.9,0-5.81,0-8.71
		C52.85,58.15,52.75,57.39,52.55,56.65z M33.34,41.36c0.01-3.54,2.79-6.3,6.35-6.3c3.61,0,6.39,2.75,6.39,6.34
		c0.01,3.63-2.77,6.38-6.43,6.37C36.08,47.77,33.33,44.98,33.34,41.36z M41.7,50.95c0.15,0,0.36,0,0.37,0.2
		c0.01,0.1-0.11,0.23-0.2,0.31c-0.46,0.4-0.94,0.76-1.38,1.18c-0.54,0.52-1.03,0.53-1.57,0c-0.39-0.39-0.85-0.71-1.26-1.08
		c-0.15-0.13-0.44-0.22-0.33-0.47c0.09-0.22,0.37-0.14,0.57-0.14c0.6-0.01,1.21,0,1.82,0c0,0,0,0.01,0,0.01
		C40.38,50.94,41.04,50.94,41.7,50.95z M50.31,65.19c0,0.97-0.15,1.11-1.11,1.11c-3.17,0.01-6.34,0-9.51,0c-3.14,0-6.28,0-9.43,0
		c-1.08,0-1.19-0.12-1.19-1.18c-0.01-1.95-0.05-3.91,0.01-5.86c0.09-3.05,1.46-5.39,4.01-7.07c0.55-0.36,0.97-0.35,1.48,0.1
		c1.03,0.91,2.09,1.78,3.16,2.64c0.49,0.4,0.7,0.88,0.7,1.51c-0.02,2.27-0.01,4.54,0,6.81c0,1.04,0.14,1.15,1.22,1.16
		c1.17,0,1.31-0.1,1.31-1.15c0.01-2.24,0.02-4.49,0-6.73c-0.01-0.69,0.23-1.19,0.78-1.62c1.08-0.85,2.13-1.73,3.16-2.65
		c0.46-0.4,0.85-0.43,1.34-0.11c2.44,1.58,3.91,3.77,4.05,6.7C50.38,60.96,50.32,63.08,50.31,65.19z"/>
	<path d="M53.09,28.3c-0.41-0.71-0.89-0.99-1.71-0.99c-3.88,0.03-7.76,0.01-11.64,0.01c-3.88,0-7.76,0.02-11.64-0.01
		c-0.84-0.01-1.35,0.26-1.78,1c-3.86,6.74-7.74,13.46-11.64,20.17c-0.42,0.73-0.44,1.3-0.01,2.03c2.04,3.46,4.03,6.94,6.04,10.42
		c0.66,1.13,0.66,1.13,1.8,0.48c0.05-0.03,0.09-0.05,0.14-0.08c0.89-0.52,0.91-0.59,0.41-1.46c-1.83-3.18-3.65-6.37-5.51-9.53
		c-0.35-0.6-0.35-1.07,0-1.67c3.44-5.91,6.87-11.83,10.26-17.76c0.44-0.77,0.96-1.06,1.83-1.05c6.76,0.03,13.52,0.03,20.28,0
		c0.82,0,1.3,0.29,1.7,0.99c3.42,5.98,6.87,11.95,10.33,17.91c0.32,0.56,0.3,0.99-0.02,1.53c-1.79,3.05-3.54,6.13-5.32,9.19
		c-0.77,1.32-0.77,1.32,0.52,2.05c0.89,0.51,0.97,0.49,1.48-0.38c2.03-3.52,4.05-7.05,6.12-10.55c0.47-0.79,0.44-1.41-0.01-2.18
		C60.8,41.71,56.94,35.01,53.09,28.3z"/>
	<path d="M14.72,32.26c0.62-0.43,1.1-0.45,1.72-0.07c0.9,0.55,1.84,1.04,2.77,1.53c1.48,0.78,1.19,0.93,2.14-0.66
		c0.38-0.64,0.24-0.99-0.38-1.31c-1.12-0.58-2.21-1.23-3.33-1.81c-0.6-0.31-1.02-0.66-0.78-1.4c-0.09-1.91-0.77-3.47-2.49-4.41
		c-1.67-0.91-3.36-0.85-4.96,0.17c-2.27,1.45-2.85,4.44-1.37,6.68C9.5,33.2,12.5,33.8,14.72,32.26z M12.06,26.08
		c1.2,0.02,2.18,1.02,2.19,2.24c0.01,1.21-0.97,2.17-2.22,2.18c-1.22,0-2.24-0.98-2.24-2.17C9.79,27.1,10.84,26.06,12.06,26.08z"/>
	<path d="M59.26,33.32c1.08-0.61,2.2-1.16,3.26-1.8c0.68-0.41,1.2-0.47,1.92,0.03c1.84,1.28,4.33,1.02,5.92-0.47
		c1.55-1.45,1.95-3.92,0.95-5.75c-1.1-2.01-3.32-2.97-5.51-2.38c-2.12,0.56-3.53,2.46-3.5,4.82c0.22,0.74-0.25,1.15-0.94,1.49
		c-0.87,0.43-1.71,0.95-2.57,1.41c-1.58,0.85-1.56,0.84-0.63,2.37C58.46,33.54,58.78,33.59,59.26,33.32z M67.05,25.33
		c1.2-0.01,2.22,0.99,2.24,2.2c0.02,1.25-0.99,2.27-2.24,2.27c-1.2,0.01-2.18-1-2.18-2.23C64.88,26.32,65.83,25.34,67.05,25.33z"/>
	<path d="M37,19.79c1.29,0.71,1.59,1.59,1.43,2.86c-0.03,0.23,0,0.47,0,0.71c0,0,0,0,0.01,0c0,0.71,0.01,1.42,0,2.14
		c-0.01,0.6,0.29,0.87,0.87,0.86c0.24-0.01,0.48-0.01,0.71,0c0.67,0.03,0.96-0.28,0.95-0.95c-0.02-1.27,0.02-2.53-0.01-3.8
		c-0.02-0.69,0.21-1.09,0.86-1.42c2.29-1.15,3.27-3.74,2.36-6.04c-0.8-1.99-2.57-3.1-4.82-3c-1.93,0.08-3.68,1.47-4.24,3.37
		C34.52,16.5,35.18,18.79,37,19.79z M39.76,13.7c1.23,0.01,2.17,0.99,2.15,2.25c-0.02,1.24-0.99,2.19-2.24,2.17
		c-1.21-0.02-2.21-1.06-2.18-2.25C37.51,14.67,38.54,13.69,39.76,13.7z"/>
	<path d="M75.67,45.18c-2.18-0.82-4.72,0.03-5.81,2.08c-0.47,0.89-1.02,1.25-1.97,1.14c-0.28-0.03-0.63-0.03-0.78,0.27
		c-0.28,0.6-0.23,1.25-0.06,1.85c0.15,0.53,0.69,0.43,1.09,0.4c0.77-0.05,1.24,0.21,1.61,0.95c0.85,1.7,2.31,2.53,3.35,2.55
		c3.29,0.01,5.19-1.59,5.62-4.02C79.11,48.21,77.81,45.98,75.67,45.18z M73.97,51.87c-1.24-0.01-2.22-0.98-2.23-2.2
		c-0.01-1.21,0.99-2.21,2.21-2.22c1.28,0,2.25,0.96,2.25,2.24C76.2,50.92,75.21,51.88,73.97,51.87z"/>
	<path d="M11.62,47.86c-0.76,0-1.09-0.39-1.4-1.01c-0.87-1.75-2.95-2.79-4.82-2.5c-2.16,0.34-3.74,1.88-4.13,4.03
		c-0.34,1.86,0.67,3.94,2.37,4.89c2.39,1.34,5.27,0.51,6.6-1.92c0.24-0.45,0.45-0.86,1.07-0.91c1.09-0.09,1.12-0.16,1.12-1.25
		C12.44,48.57,12.51,47.86,11.62,47.86z M6.03,51.35c-1.19,0-2.22-1.03-2.22-2.23c0-1.21,1.01-2.22,2.22-2.22
		c1.2,0,2.24,1.03,2.23,2.22C8.26,50.3,7.21,51.34,6.03,51.35z"/>
</g>
</svg>
