<?xml version="1.0" encoding="utf-8"?>
<!-- Generator: Adobe Illustrator 26.3.1, SVG Export Plug-In . SVG Version: 6.00 Build 0)  -->
<svg version="1.1" id="Layer_1" xmlns="http://www.w3.org/2000/svg" xmlns:xlink="http://www.w3.org/1999/xlink" x="0px" y="0px"
	 viewBox="0 0 80 80" style="enable-background:new 0 0 80 80;" xml:space="preserve">
<g>
	<path d="M57.31,43.94c-0.8,0-1.49,0-2.28,0c0-1.55,0-3.09,0-4.72c-2.25,0.71-4.39,1.39-6.59,2.09c-0.24-0.74-0.46-1.42-0.71-2.18
		c1.29-0.42,2.53-0.82,3.78-1.22c1-0.32,2.01-0.63,3.01-0.98c0.19-0.06,0.46-0.27,0.46-0.42c0.03-2.3,0.02-4.59,0.02-6.99
		c-2.44,2.44-4.79,4.8-7.17,7.19c-0.56-0.63-1.05-1.17-1.58-1.77c0.08-0.09,0.26-0.28,0.44-0.46c2.62-2.62,5.23-5.24,7.86-7.84
		c0.34-0.33,0.48-0.66,0.46-1.13c-0.03-0.79,0.01-1.59-0.02-2.38c-0.05-1.89-1.52-3.36-3.42-3.39c-1.54-0.03-3.08-0.03-4.61,0.01
		c-0.24,0.01-0.58,0.22-0.69,0.44c-1.04,2.06-0.8,1.85-3.13,1.85c-2.45,0-4.9-0.02-7.35,0.01c-0.81,0.01-1.38-0.25-1.61-1.03
		c-0.33-1.1-1.02-1.42-2.14-1.32c-1.17,0.11-2.35,0.01-3.53,0.03c-2.02,0.03-3.35,1.51-3.54,3.52c-0.19,2.05,0.42,3.53,1.98,4.93
		c2.61,2.34,5,4.92,7.48,7.4c0.19,0.19,0.4,0.34,0.64,0.54c-0.64,0.57-1.18,1.06-1.91,1.71c-0.06-0.11-0.16-0.38-0.34-0.56
		c-5.97-5.99-11.96-11.96-17.93-17.96c-0.4-0.4-0.67-0.48-1.21-0.2c-2.5,1.28-5.55,0.5-7.19-1.77c-1.65-2.28-1.43-5.39,0.53-7.4
		c1.98-2.03,5.13-2.33,7.44-0.69c2.3,1.62,3.13,4.65,1.87,7.16c-0.32,0.64-0.18,0.94,0.27,1.38c1.84,1.8,3.65,3.63,5.46,5.44
		c0.16,0.16,0.34,0.32,0.56,0.52c0.06-0.59,0.08-1.11,0.18-1.62c0.5-2.73,2.8-4.7,5.58-4.71c7.74-0.02,15.48-0.03,23.21,0
		c3.13,0.01,5.6,2.5,5.7,5.63c0.01,0.2,0,0.41,0,0.85c0.63-0.65,1.1-1.14,1.59-1.63c1.54-1.55,3.08-3.1,4.64-4.63
		c0.36-0.35,0.44-0.59,0.19-1.09c-1.24-2.37-0.67-5.19,1.33-6.95c1.93-1.7,4.79-1.9,6.96-0.49c2.18,1.42,3.13,4.16,2.32,6.64
		c-0.81,2.48-3.19,4.13-5.82,3.93c-0.79-0.06-1.59-0.34-2.33-0.66c-0.45-0.19-0.66-0.13-0.97,0.18c-2.5,2.53-5.03,5.03-7.53,7.56
		c-0.17,0.17-0.35,0.43-0.35,0.65c-0.02,2.83-0.02,5.67-0.02,8.6c0.87-0.27,1.68-0.52,2.49-0.77c0.87-0.27,1.73-0.59,2.61-0.82
		c0.52-0.14,0.69-0.38,0.69-0.94c0-2.67,1.91-5,4.48-5.55c2.71-0.58,5.36,0.74,6.5,3.22c1.24,2.71,0.24,5.87-2.34,7.38
		c-2.53,1.48-5.79,0.82-7.52-1.58c-0.32-0.44-0.58-0.55-1.1-0.37c-1.75,0.6-3.51,1.16-5.27,1.7c-0.43,0.13-0.55,0.33-0.54,0.76
		C57.32,40.66,57.31,42.26,57.31,43.94z M11.18,17.41c1.88-0.01,3.43-1.55,3.44-3.44c0.01-1.91-1.55-3.48-3.47-3.48
		c-1.87,0-3.44,1.56-3.44,3.44C7.7,15.86,9.26,17.42,11.18,17.41z M72.3,13.94c-0.01-1.91-1.59-3.46-3.51-3.44
		c-1.87,0.02-3.42,1.6-3.4,3.47c0.02,1.89,1.56,3.43,3.44,3.44C70.74,17.42,72.31,15.85,72.3,13.94z M68.89,37.03
		c1.88-0.02,3.42-1.58,3.41-3.46c0-1.91-1.58-3.46-3.5-3.45c-1.87,0.01-3.42,1.59-3.41,3.46C65.4,35.5,66.97,37.05,68.89,37.03z"/>
	<path d="M22.7,61.72c-2.25,2.25-4.32,4.36-6.43,6.43c-0.36,0.35-0.12,0.58,0.02,0.87c1.71,3.41-0.24,7.49-3.95,8.26
		c-2.5,0.52-5.01-0.62-6.24-2.84c-1.22-2.19-0.88-4.92,0.84-6.75c1.74-1.86,4.46-2.37,6.74-1.21c0.54,0.27,0.81,0.21,1.21-0.19
		c2.44-2.48,4.92-4.93,7.37-7.41c0.2-0.2,0.41-0.51,0.41-0.77c0.03-2.81,0.02-5.62,0.02-8.54c-0.56,0.17-1.08,0.32-1.59,0.48
		c-1.17,0.37-2.32,0.77-3.5,1.11c-0.5,0.15-0.71,0.35-0.71,0.93c0.01,2.38-1.49,4.49-3.71,5.33c-2.26,0.85-4.77,0.22-6.37-1.59
		C4.7,53.41,5,49.63,7.49,47.59c2.53-2.08,6.32-1.65,8.24,0.98c0.39,0.53,0.7,0.6,1.28,0.4c1.7-0.59,3.42-1.13,5.14-1.65
		c0.42-0.13,0.56-0.31,0.55-0.75c-0.02-2.5-0.02-5,0-7.5c0-0.48-0.16-0.65-0.6-0.78c-1.77-0.53-3.53-1.1-5.28-1.69
		c-0.46-0.16-0.69-0.09-1,0.32c-1.49,2-3.52,2.82-5.95,2.27c-2.37-0.53-3.85-2.08-4.37-4.46c-0.71-3.26,1.6-6.46,4.93-6.88
		c3.31-0.42,6.39,2.15,6.46,5.47c0.02,0.73,0.21,1.02,0.92,1.21c1.61,0.44,3.2,1,4.88,1.54c0-1.62,0-3.17,0-4.75
		c0.78,0,1.49,0,2.31,0c0,1.07-0.01,2.14,0,3.21c0.01,0.74-0.23,1.67,0.12,2.17c0.35,0.49,1.31,0.55,2.02,0.78
		c1.68,0.55,3.37,1.09,5.12,1.65c-0.23,0.73-0.44,1.4-0.69,2.18c-2.19-0.69-4.35-1.37-6.55-2.07c0,2.41,0,4.74,0,7.14
		c0.65-0.2,1.27-0.38,1.93-0.58c0.24,0.72,0.46,1.4,0.7,2.16c-0.75,0.25-1.48,0.46-2.19,0.74c-0.2,0.08-0.45,0.37-0.45,0.57
		c-0.03,2.23-0.02,4.47-0.02,6.77c2.03-2.04,4.01-4.02,6.02-6.03c0.64,0.64,1.14,1.15,1.69,1.7c-0.19,0.2-0.36,0.39-0.54,0.57
		c-2.24,2.24-4.49,4.48-6.71,6.74c-0.25,0.25-0.43,0.69-0.43,1.05c-0.03,3.77-0.02,7.55-0.02,11.32c0,2.29,1.44,3.72,3.75,3.72
		c6.13,0,12.26,0,18.38,0c0.28,0,0.57,0,0.9,0c0,0.78,0,1.51,0,2.31c-0.26,0-0.49,0-0.73,0c-6.15,0-12.3,0-18.46,0
		c-3.71,0-6.15-2.43-6.15-6.13c0-2.88,0-5.77,0-8.65C22.7,62.4,22.7,62.16,22.7,61.72z M11.14,30.11c-1.88,0.01-3.43,1.56-3.44,3.44
		c-0.01,1.91,1.55,3.48,3.47,3.48c1.88,0,3.44-1.56,3.44-3.44C14.62,31.67,13.06,30.11,11.14,30.11z M14.62,52.05
		c0-1.92-1.56-3.49-3.47-3.48c-1.88,0.01-3.43,1.55-3.44,3.43c-0.01,1.91,1.55,3.48,3.47,3.48C13.05,55.49,14.62,53.93,14.62,52.05z
		 M14.62,71.63c-0.01-1.92-1.59-3.47-3.5-3.45c-1.88,0.02-3.42,1.58-3.41,3.47c0.01,1.91,1.58,3.46,3.5,3.45
		C13.08,75.08,14.63,73.51,14.62,71.63z"/>
	<path d="M52.8,77.37c-0.89,0-1.6,0-2.23,0c-0.26-0.67-0.48-1.3-0.75-1.92c-1.6-3.71-1.59-7.41,0.05-11.1
		c0.08-0.17,0.16-0.35,0.27-0.61c-1.41-1.39-2.86-2.75-4.24-4.19c-2.32-2.41-1.37-6.3,1.77-7.3c1.71-0.54,3.23-0.13,4.51,1.11
		c0.91,0.88,1.77,1.8,2.81,2.86c0-1.82,0.01-3.39,0-4.96c-0.01-0.81,0.23-1.82-0.16-2.37c-0.37-0.52-1.41-0.56-2.16-0.81
		c-0.47-0.16-0.94-0.31-1.47-0.49c0.23-0.74,0.45-1.42,0.69-2.18c0.7,0.22,1.38,0.43,2.05,0.64c3.08,0.99,6.17,1.97,9.25,2.97
		c0.42,0.14,0.65,0.13,0.94-0.28c1.84-2.59,5.23-3.24,7.85-1.54c2.55,1.66,3.37,5.03,1.87,7.68c-1.52,2.69-4.86,3.66-7.69,2.24
		c-0.13-0.06-0.25-0.13-0.5-0.25c0.11,0.29,0.2,0.46,0.24,0.65c0.22,1.03,0.6,2.05,0.61,3.08c0.06,5.43,0.03,10.86,0.03,16.29
		c0,0.14-0.01,0.28-0.02,0.47c-0.75,0-1.48,0-2.29,0c0-0.27,0-0.53,0-0.79c0-5.17-0.02-10.33,0.01-15.5
		c0.01-1.89-0.61-3.46-1.97-4.77c-1.48-1.44-2.93-2.92-4.39-4.38c-0.15-0.15-0.3-0.28-0.57-0.53c0,1.54,0.13,2.96-0.03,4.35
		c-0.23,1.97,0.31,3.49,1.94,4.64c0.45,0.32,0.84,0.71,1.29,1.1c-0.67,0.6-1.2,1.08-1.8,1.61c-0.09-0.09-0.28-0.25-0.46-0.43
		c-2.5-2.5-5-4.99-7.49-7.49c-0.57-0.58-1.22-0.95-2.05-0.8c-0.81,0.15-1.39,0.62-1.65,1.43c-0.27,0.85-0.04,1.57,0.56,2.18
		c1.44,1.45,2.89,2.89,4.33,4.34c0.91,0.91,0.95,1.12,0.38,2.26c-1.86,3.65-1.84,7.27,0.08,10.9C52.68,76.01,52.66,76.7,52.8,77.37z
		 M68.86,48.57c-1.89-0.01-3.45,1.52-3.47,3.4c-0.02,1.92,1.52,3.5,3.44,3.51c1.88,0.01,3.45-1.53,3.47-3.4
		C72.32,50.16,70.77,48.58,68.86,48.57z M59.93,50.39c1.08,1.07,2.29,2.28,3.33,3.32c-0.05-0.51-0.1-1.27-0.2-2.02
		c-0.02-0.14-0.17-0.34-0.3-0.39C61.75,50.96,60.73,50.65,59.93,50.39z"/>
	<path d="M43.78,42.8c1.76,0,3.44,0.01,5.12,0c0.59,0,1.1,0.1,1.38,0.7c0.28,0.61-0.02,1.05-0.41,1.49
		c-5.61,6.36-11.22,12.71-16.83,19.07c-0.6,0.68-1.12,0.83-1.68,0.5c-0.56-0.32-0.69-0.89-0.4-1.71c1.6-4.47,3.2-8.94,4.79-13.41
		c0.09-0.24,0.16-0.49,0.27-0.82c-0.23-0.02-0.41-0.05-0.58-0.05c-1.44,0-2.88-0.01-4.32,0c-0.59,0.01-1.1-0.1-1.38-0.69
		c-0.27-0.57-0.01-1.01,0.34-1.44c3.32-4.08,6.63-8.16,9.95-12.24c1.54-1.9,3.09-3.8,4.63-5.71c0.43-0.53,0.9-0.9,1.6-0.55
		c0.68,0.34,0.72,0.91,0.56,1.6c-0.97,4.13-1.92,8.27-2.87,12.41C43.9,42.2,43.85,42.45,43.78,42.8z M35.2,57.83
		c0.05,0.04,0.1,0.08,0.14,0.11c3.74-4.24,7.47-8.47,11.32-12.83c-1.5,0-2.83,0.01-4.17,0c-1.02-0.01-1.5-0.62-1.28-1.6
		c0.38-1.68,0.78-3.36,1.17-5.04c0.36-1.54,0.71-3.09,1.06-4.63c-0.04-0.02-0.08-0.03-0.12-0.05c-3.35,4.12-6.69,8.24-10.14,12.48
		c1.53,0,2.9-0.01,4.26,0c1.13,0.01,1.61,0.69,1.24,1.76c-0.4,1.16-0.82,2.3-1.23,3.45C36.71,53.59,35.96,55.71,35.2,57.83z"/>
	<path d="M33.94,12.92c-0.56-0.53-1.08-1.02-1.6-1.5c3.81-4.16,11.18-4.39,15.32-0.02c-0.53,0.5-1.06,1-1.6,1.51
		C42.26,9.45,37.13,9.93,33.94,12.92z"/>
	<path d="M31.53,9.18c-0.78-0.74-1.51-1.42-2.23-2.1c5.32-5.81,15.62-6.14,21.4-0.03c-0.74,0.7-1.49,1.4-2.23,2.1
		C43.16,4.33,35.99,4.99,31.53,9.18z"/>
	<path d="M44.56,72.78c-3.06,0-6.06,0-9.11,0c0-0.74,0-1.47,0-2.25c3.02,0,6.05,0,9.11,0C44.56,71.28,44.56,72.03,44.56,72.78z"/>
	<path d="M37.35,15.89c-0.52-0.53-1.01-1.05-1.51-1.56c1.69-2.36,6.39-2.38,8.38,0.01c-0.51,0.49-1.03,0.99-1.59,1.52
		C40.9,14.49,39.13,14.46,37.35,15.89z"/>
</g>
</svg>
