<?xml version="1.0" encoding="utf-8"?>
<!-- Generator: Adobe Illustrator 26.3.1, SVG Export Plug-In . SVG Version: 6.00 Build 0)  -->
<svg version="1.1" id="Layer_1" xmlns="http://www.w3.org/2000/svg" xmlns:xlink="http://www.w3.org/1999/xlink" x="0px" y="0px"
	 viewBox="0 0 80 80" style="enable-background:new 0 0 80 80;" xml:space="preserve">
<g>
	<path d="M77.69,41.32c-0.53-2.82-1.98-3.97-4.85-3.97c-5.42,0-10.84,0.01-16.26-0.01c-0.39,0-1.04,0.27-1.11-0.36
		c-0.24-2.29-1.84-2.4-3.57-2.3c-0.77,0.05-1.13-0.19-1.38-0.99c-0.8-2.54-2.89-4-5.58-4.02c-2.03-0.02-4.05-0.03-6.08,0
		c-1.68,0.03-2.64,0.9-2.72,2.58c-0.04,0.84-0.36,1.04-1.11,1.02c-1.81-0.04-3.61-0.01-5.42-0.01c-0.66,0-1.33,0.12-1.33,0.93
		c0.01,0.78,0.64,0.95,1.32,0.95c1.81-0.01,3.61,0.03,5.42-0.01c0.75-0.01,1.14,0.14,1.1,1.01c-0.06,1.41-0.06,2.82,0,4.23
		c0.04,0.85-0.32,1.04-1.09,1.02c-1.81-0.04-3.61-0.01-5.42-0.01c-0.67,0-1.34,0.12-1.34,0.92c0,0.8,0.65,0.91,1.33,0.91
		c1.81-0.02,3.61,0.02,5.42-0.02c0.78-0.02,1.06,0.2,1.09,1.03c0.07,1.76,1.03,2.62,2.79,2.64c2.07,0.02,4.14,0.06,6.21-0.01
		c2.47-0.08,4.36-1.27,5.21-3.59c0.44-1.21,1.01-1.53,2.16-1.42c1.55,0.14,2.71-0.38,2.92-2.11c0.09-0.7,0.6-0.54,0.99-0.54
		c5.6-0.01,11.19-0.01,16.79-0.01c1.5,0,2.36,0.76,2.63,2.24c0.48,2.61,0.75,5.23,0.78,7.88c0.04,2.93-2.04,4.95-4.98,5
		c-0.98,0.02-1.27-0.13-1.02-1.24c0.67-3-0.61-5.87-3.16-7.55c-2.36-1.55-5.51-1.53-7.86,0.04c-2.53,1.68-3.8,4.61-3.08,7.58
		c0.29,1.2-0.2,1.17-1.06,1.17c-5.02-0.02-10.05-0.01-15.07-0.01c-5.02,0-10.05-0.02-15.07,0.02c-1.02,0.01-1.3-0.13-1.05-1.27
		c1.1-4.83-3.21-9.34-8.12-8.59c-4.2,0.65-6.87,4.48-5.98,8.71c0.19,0.93,0.06,1.23-0.94,1.15c-1.18-0.09-2.38-0.02-3.57-0.03
		c-0.81-0.01-2.01,0.32-1.04-1.24c0.27-0.44-0.04-0.94-0.15-1.41c-1.58-6.68,0.84-11.46,7.15-14.19c1.66-0.72,3.35-1.36,5.11-1.76
		c1.37-0.31,2.52-0.92,3.58-1.84c1.94-1.67,4.03-3.14,6.18-4.52c4.47-2.87,9.09-5.52,14.5-6.03c8.9-0.83,17.78-0.01,26.64,0.8
		c0.54,0.05,0.83,0.16,0.27,0.63c-1,0.83-0.55,1.47,0.22,2.14c2.14,1.88,3.86,4.1,5.19,6.62c0.32,0.6,0.62,1.32,1.46,0.88
		c0.8-0.42,0.47-1.12,0.16-1.72c-1.17-2.24-2.62-4.29-4.44-6.04c-0.61-0.59-0.97-0.95-0.16-1.74c0.83-0.81,0.35-2.04-0.78-2.36
		c-0.42-0.12-0.87-0.15-1.3-0.2c-6.09-0.62-12.2-1.06-18.32-1.18c-5.83-0.12-11.63,0.02-17.08,2.58c-4.41,2.07-8.53,4.61-12.32,7.65
		c-1.79,1.43-3.64,2.52-5.89,3.03c-1.71,0.39-3.34,1.1-4.91,1.93c-6.18,3.25-8.6,8.27-7.17,15c0.21,1,0.05,1.76-0.44,2.6
		c-1.01,1.71-0.72,2.19,1.22,2.2c2.34,0.01,4.67,0.02,7.01-0.01c0.75-0.01,1.3,0.17,1.87,0.71c2.84,2.7,7.07,2.73,9.91,0.05
		c0.6-0.57,1.2-0.76,1.99-0.76c10.88,0.02,21.77,0.02,32.65,0c0.76,0,1.29,0.22,1.85,0.75c2.56,2.41,6.4,2.79,9.06,0.61
		c1.36-1.11,2.67-1.37,4.29-1.38c3.6-0.01,6.44-2.91,6.46-6.49C78.47,46.82,78.2,44.06,77.69,41.32z M49,41.24
		c-0.09,2.16-1.79,3.74-3.97,3.78c-1.93,0.04-3.87-0.02-5.8,0.03c-0.97,0.02-1.33-0.37-1.31-1.33c0.04-1.85,0.01-3.69,0.01-5.54
		c0-1.76,0.04-3.52-0.01-5.27c-0.03-0.99,0.26-1.46,1.34-1.43c1.93,0.06,3.87-0.01,5.8,0.02c2.19,0.04,3.84,1.59,3.93,3.8
		C49.07,37.28,49.08,39.26,49,41.24z M53.85,39.18c0,0.62-0.5,1.12-1.12,1.12h-0.85c-0.62,0-1.12-0.5-1.12-1.12v-2.19
		c0-0.62,0.5-1.12,1.12-1.12h0.85c0.62,0,1.12,0.5,1.12,1.12V39.18z M17.17,56.98c-2.98,0-5.37-2.37-5.38-5.34
		c-0.02-3.04,2.38-5.41,5.45-5.4c3.06,0.01,5.41,2.4,5.37,5.47C22.58,54.68,20.2,56.98,17.17,56.98z M63.58,56.97
		c-3.04,0-5.49-2.43-5.45-5.41c0.04-2.96,2.42-5.31,5.41-5.32c3.07-0.02,5.41,2.32,5.39,5.41C68.92,54.67,66.6,56.98,63.58,56.97z"
		/>
	<path d="M45.04,37.99c-1.48-0.23-1.5-1.01-0.87-2.1c0.17-0.3,0.3-0.64,0.38-0.98c0.05-0.2,0.05-0.52-0.07-0.62
		c-0.28-0.23-0.47,0.08-0.63,0.26c-0.9,1.03-1.78,2.07-2.67,3.09c-0.31,0.35-0.5,0.73,0.15,0.83c1.87,0.29,1.35,1.34,0.83,2.43
		c-0.21,0.43-0.35,0.9-0.57,1.33c-0.14,0.28-0.1,0.38,0.23,0.41c0.09-0.05,0.24-0.08,0.32-0.17c1.1-1.26,2.2-2.52,3.28-3.79
		C45.81,38.21,45.36,38.04,45.04,37.99z"/>
</g>
</svg>
