<?xml version="1.0" encoding="iso-8859-1"?>
<!-- Generator: Adobe Illustrator 18.1.1, SVG Export Plug-In . SVG Version: 6.00 Build 0)  -->
<svg version="1.1" id="Capa_1" xmlns="http://www.w3.org/2000/svg" xmlns:xlink="http://www.w3.org/1999/xlink" x="0px" y="0px"
	 viewBox="0 0 265.84 265.84" style="enable-background:new 0 0 265.84 265.84;" xml:space="preserve">
<g>
	<g>
		<path style="fill:#010002;" d="M132.92,265.837c73.291,0,132.92-59.623,132.92-132.92S206.211,0.003,132.92,0.003
			S0,59.631,0,132.923S59.623,265.837,132.92,265.837z M132.92,10.881c67.292,0,122.042,54.744,122.042,122.042
			s-54.75,122.036-122.042,122.036S10.878,200.215,10.878,132.923S65.622,10.881,132.92,10.881z"/>
		<path style="fill:#010002;" d="M25.613,142.37c2.127,2.127,5.564,2.127,7.691,0c19.107-19.107,42.795-31.922,68.565-37.491
			c-7.283,7.452-11.786,17.623-11.786,28.838c0,22.773,18.531,41.304,41.304,41.304s41.304-18.531,41.304-41.31
			c0-11.215-4.509-21.386-11.786-28.838c25.77,5.57,49.457,18.384,68.565,37.491c1.061,1.061,2.453,1.594,3.845,1.594
			c1.392,0,2.785-0.533,3.845-1.594c2.127-2.127,2.127-5.564,0-7.691c-28.272-28.278-65.834-43.85-105.773-43.85
			s-77.501,15.572-105.773,43.85C23.491,136.801,23.491,140.244,25.613,142.37z M161.812,133.711
			c0,16.774-13.647,30.426-30.426,30.426s-30.426-13.647-30.426-30.426s13.647-30.426,30.426-30.426
			S161.812,116.937,161.812,133.711z"/>
	</g>
</g>
<g>
</g>
<g>
</g>
<g>
</g>
<g>
</g>
<g>
</g>
<g>
</g>
<g>
</g>
<g>
</g>
<g>
</g>
<g>
</g>
<g>
</g>
<g>
</g>
<g>
</g>
<g>
</g>
<g>
</g>
</svg>
