<?xml version="1.0" encoding="utf-8"?>
<!-- Generator: Adobe Illustrator 26.3.1, SVG Export Plug-In . SVG Version: 6.00 Build 0)  -->
<svg version="1.1" id="Layer_1" xmlns="http://www.w3.org/2000/svg" xmlns:xlink="http://www.w3.org/1999/xlink" x="0px" y="0px"
	 viewBox="0 0 80 80" style="enable-background:new 0 0 80 80;" xml:space="preserve">
<g>
	<path d="M30.87,20.41c-0.8-1.56-1.52-3.12-2.03-4.76c-0.41-1.32-0.6-2.65-0.44-4.03c0.33-2.78,1.46-5.17,3.46-7.13
		c1.76-1.72,3.85-2.8,6.28-3.17c3.68-0.56,6.93,0.41,9.7,2.89c1.98,1.77,3.16,4.01,3.65,6.62c0.37,1.97,0.09,3.88-0.65,5.72
		c-0.5,1.24-1.09,2.46-1.63,3.68c-0.02,0.05-0.05,0.11-0.09,0.18c0.46,0.17,0.91,0.33,1.35,0.5c1.32,0.49,2.59,1.09,3.81,1.78
		c4.95,2.79,8.79,6.68,11.57,11.63c1.06,1.89,1.89,3.89,2.5,5.97c0.54,1.84,0.91,3.71,1.1,5.61c0.17,1.69,0.22,3.39,0.08,5.08
		c-0.09,1.15-0.25,2.29-0.44,3.43c-0.69,4.03-2.2,7.74-4.46,11.14c-2.47,3.73-5.62,6.77-9.44,9.1c-2.47,1.5-5.1,2.61-7.9,3.32
		c-1.93,0.49-3.9,0.82-5.89,0.85c-1.35,0.03-2.72,0.05-4.06-0.07c-5.45-0.48-10.4-2.35-14.8-5.62c-3.44-2.55-6.21-5.69-8.32-9.42
		c-1.55-2.75-2.63-5.67-3.25-8.76c-0.51-2.52-0.69-5.07-0.55-7.64c0.28-5.15,1.77-9.92,4.48-14.3c1.55-2.51,3.45-4.73,5.66-6.68
		c2.95-2.6,6.29-4.54,10.02-5.81C30.68,20.49,30.77,20.45,30.87,20.41z M39.99,31.4c0.07-0.09,0.13-0.15,0.18-0.22
		c2.06-2.87,4.04-5.78,5.82-8.84c1.23-2.1,2.37-4.25,3.21-6.55c0.57-1.55,0.82-3.11,0.49-4.75c-0.46-2.32-1.56-4.27-3.38-5.78
		c-2.45-2.03-5.28-2.75-8.38-2.08c-3.17,0.69-5.49,2.56-6.87,5.51c-1.01,2.15-1.23,4.37-0.43,6.66c0.64,1.84,1.47,3.58,2.4,5.28
		c1.66,3.02,3.53,5.9,5.5,8.73C39.01,30.04,39.49,30.71,39.99,31.4z M67.81,49.83c-4.03,0-8.02,0-12.03,0
		c-0.09,4.64-0.67,9.19-1.97,13.66c2.41,1.2,4.68,2.64,6.86,4.27C65.16,62.62,67.52,56.66,67.81,49.83z M12.18,49.84
		c0.29,6.82,2.64,12.78,7.11,17.89c1.14-0.77,2.24-1.54,3.38-2.25c1.14-0.71,2.32-1.35,3.49-2.03c-1.28-4.43-1.87-8.98-1.95-13.61
		C20.19,49.84,16.2,49.84,12.18,49.84z M19.31,30.1c-4.48,5.14-6.84,11.1-7.12,17.91c4.03,0,8.01,0,12.03,0
		c0.07-4.54,0.66-8.98,1.87-13.34C23.69,33.35,21.46,31.81,19.31,30.1z M60.72,30.13c-2.08,1.8-4.24,3.4-6.6,4.74
		c-0.16,0.09-0.1,0.19-0.07,0.31c0.26,1.11,0.54,2.22,0.75,3.34c0.21,1.09,0.41,2.2,0.52,3.31c0.18,1.74,0.29,3.48,0.42,5.22
		c0.02,0.32,0.03,0.64,0.04,0.95c4.02,0,8.01,0,12.02,0C67.53,41.21,65.17,35.27,60.72,30.13z M27.83,62.73
		c3.61-1.57,7.34-2.51,11.26-2.64c0-3.43,0-6.84,0-10.25c-4.37,0-8.72,0-13.08,0C26.09,54.22,26.64,58.5,27.83,62.73z M40.9,60.09
		c3.93,0.13,7.66,1.07,11.26,2.64c1.19-4.24,1.75-8.53,1.82-12.88c-4.38,0-8.72,0-13.08,0C40.9,53.26,40.9,56.65,40.9,60.09z
		 M27.72,35.52c-1.11,4.11-1.64,8.26-1.7,12.49c4.38,0,8.72,0,13.08,0c0-3.13,0-6.24,0-9.37C35.09,38.43,31.35,37.28,27.72,35.52z
		 M53.98,48.02c-0.07-4.14-0.58-8.2-1.63-12.2c-1.81,0.89-3.66,1.59-5.58,2.09c-1.92,0.49-3.88,0.75-5.87,0.8c0,3.12,0,6.22,0,9.32
		C45.26,48.02,49.6,48.02,53.98,48.02z M40.9,77c0.12-0.01,0.23-0.02,0.33-0.04c1.07-0.21,2.05-0.62,2.96-1.21
		c1.59-1.03,2.83-2.4,3.9-3.95c1.23-1.77,2.16-3.69,2.94-5.68c0.21-0.55,0.4-1.11,0.61-1.69c-3.43-1.53-6.97-2.48-10.74-2.61
		C40.9,66.89,40.9,71.92,40.9,77z M39.09,77c0-5.07,0-10.12,0-15.17c-2.96,0-9.46,1.6-10.73,2.65c0.22,0.59,0.43,1.19,0.66,1.78
		c0.95,2.4,2.13,4.66,3.77,6.67c1.11,1.36,2.38,2.54,3.96,3.33C37.49,76.63,38.26,76.9,39.09,77z M40.89,36.95
		c3.9-0.08,7.52-1.11,10.96-2.87c-1.12-3.5-2.58-6.8-5.01-9.64c-0.06,0.1-0.11,0.17-0.16,0.24c-0.35,0.56-0.69,1.14-1.06,1.68
		c-1.53,2.23-3.07,4.46-4.6,6.69c-0.08,0.11-0.13,0.27-0.13,0.4c-0.01,1.03-0.01,2.06-0.01,3.1C40.89,36.69,40.89,36.82,40.89,36.95
		z M28.24,33.79c3.43,1.73,7,2.87,10.87,3.12c0-0.12,0-0.22,0-0.31c0-1.01-0.01-2.01,0.01-3.02c0-0.25-0.07-0.44-0.22-0.64
		c-1.75-2.37-3.41-4.8-4.98-7.29c-0.25-0.39-0.49-0.79-0.74-1.19C31.44,26.31,29.53,29.69,28.24,33.79z M59.47,28.82
		c-0.43-0.4-0.84-0.79-1.25-1.16c-1.52-1.35-3.18-2.51-4.96-3.5c-1.41-0.78-2.89-1.43-4.42-1.95c-0.57-0.2-0.57-0.21-0.86,0.31
		c-0.02,0.03-0.03,0.06-0.05,0.09c-0.11,0.14-0.11,0.25,0.03,0.38c0.17,0.15,0.31,0.33,0.45,0.51c1.77,2.11,3.06,4.5,4.08,7.04
		c0.35,0.87,0.66,1.76,0.99,2.65C55.61,31.94,57.58,30.47,59.47,28.82z M26.61,32.92c0.02-0.05,0.04-0.08,0.05-0.11
		c0.41-1.06,0.77-2.13,1.22-3.17c1-2.33,2.26-4.5,3.94-6.42c0.37-0.42,0.36-0.41,0.09-0.91c-0.12-0.22-0.23-0.28-0.48-0.2
		c-3.14,1.04-6.01,2.58-8.58,4.65c-0.79,0.63-1.53,1.32-2.33,2C22.49,30.32,24.48,31.71,26.61,32.92z M20.58,69.08
		c3.66,3.59,7.95,5.99,12.96,7.24c-3.43-3.04-5.34-6.92-6.82-11.09C24.56,66.33,22.54,67.62,20.58,69.08z M53.28,65.22
		c-1.48,4.19-3.4,8.06-6.81,11.09c5.02-1.24,9.29-3.65,12.95-7.24C57.46,67.62,55.44,66.33,53.28,65.22z"/>
	<path d="M39.99,18.09c-3.16,0-5.67-2.64-5.57-5.75c0.09-2.86,2.38-5.3,5.39-5.4c3.28-0.12,5.84,2.63,5.77,5.74
		C45.5,15.63,43,18.11,39.99,18.09z M39.99,16.29c1.97,0.05,3.79-1.62,3.79-3.77c0-2.08-1.7-3.79-3.77-3.79
		c-2.06,0-3.79,1.7-3.79,3.75C36.21,14.59,37.89,16.28,39.99,16.29z"/>
</g>
</svg>
