<?xml version="1.0" encoding="utf-8"?>
<!-- Generator: Adobe Illustrator 26.3.1, SVG Export Plug-In . SVG Version: 6.00 Build 0)  -->
<svg version="1.1" id="Layer_1" xmlns="http://www.w3.org/2000/svg" xmlns:xlink="http://www.w3.org/1999/xlink" x="0px" y="0px"
	 viewBox="0 0 80 80" style="enable-background:new 0 0 80 80;" xml:space="preserve">
<g>
	<path d="M40,0.34C18.1,0.34,0.34,18.1,0.34,40S18.1,79.66,40,79.66S79.66,61.9,79.66,40S61.9,0.34,40,0.34z M64.03,64.03
		c-3.12,3.12-6.76,5.57-10.8,7.29c-4.19,1.77-8.64,2.67-13.23,2.67s-9.04-0.9-13.23-2.67c-4.05-1.71-7.68-4.16-10.8-7.29
		c-3.12-3.12-5.57-6.76-7.29-10.8C6.91,49.04,6.02,44.59,6.02,40s0.9-9.04,2.67-13.23c1.71-4.05,4.16-7.68,7.29-10.8
		s6.76-5.57,10.8-7.29C30.96,6.91,35.41,6.02,40,6.02s9.04,0.9,13.23,2.67c4.05,1.71,7.68,4.16,10.8,7.29
		c3.12,3.12,5.57,6.76,7.29,10.8c1.77,4.19,2.67,8.64,2.67,13.23s-0.9,9.04-2.67,13.23C69.6,57.27,67.15,60.91,64.03,64.03z"/>
	<path d="M40.42,37.14c-0.14-0.02-0.28-0.03-0.42-0.03c-1.6,0-2.9,1.3-2.9,2.9c0,0.55,0.15,1.05,0.42,1.49l-1.66,2.41l2.24,1.56
		l1.46-2.6c0.14,0.02,0.29,0.04,0.44,0.04c1.6,0,2.9-1.3,2.9-2.9c0-0.8-0.32-1.52-0.85-2.05l5.49-11.28L40.42,37.14z"/>
	<path d="M62.03,30.89c-1.77-4.29-4.76-7.96-8.54-10.57l2.01-2.54l-1.43-1.13l-2.13,2.69c-3.25-1.89-6.98-3.04-10.98-3.21v-3.52
		h-1.83v3.51c-4.08,0.13-7.91,1.3-11.23,3.24l-2.26-2.7l-1.4,1.17l2.11,2.52c-3.76,2.61-6.75,6.27-8.52,10.57l-3.54-1.41l-0.68,1.7
		l3.59,1.43l0.01-0.03c-0.7,2.15-1.1,4.43-1.16,6.8c-0.1,3.97,0.78,7.74,2.42,11.08l-2.57,1.74l1.02,1.51l2.42-1.63
		c1.43,2.42,3.27,4.57,5.43,6.35l1.89-2.32c-0.65-0.53-1.27-1.11-1.85-1.73c-3.85-4.04-5.89-9.34-5.76-14.92
		c0.14-5.58,2.44-10.77,6.48-14.62c4.04-3.85,9.34-5.89,14.92-5.76c5.58,0.14,10.77,2.44,14.62,6.48c3.85,4.04,5.89,9.34,5.76,14.92
		c-0.14,5.58-2.44,10.77-6.48,14.62c-0.46,0.43-0.93,0.85-1.42,1.23l2.44,1.87c2.03-1.72,3.77-3.77,5.13-6.07l2.34,1.58l1.02-1.51
		l-2.48-1.68c1.49-3.01,2.36-6.39,2.44-9.97c0.07-2.79-0.35-5.48-1.16-7.98l3.49-1.39l-0.68-1.7L62.03,30.89z"/>
</g>
</svg>
