<?xml version="1.0" encoding="utf-8"?>
<!-- Generator: Adobe Illustrator 26.0.1, SVG Export Plug-In . SVG Version: 6.00 Build 0)  -->
<svg version="1.1" id="Layer_1" xmlns="http://www.w3.org/2000/svg" xmlns:xlink="http://www.w3.org/1999/xlink" x="0px" y="0px"
	 viewBox="0 0 80 80" style="enable-background:new 0 0 80 80;" xml:space="preserve">
<g>
	<rect x="9.4" y="12.8" width="20.9" height="4.8"/>
	<rect x="9.4" y="20.1" width="18.4" height="4.8"/>
	<rect x="9.4" y="27.4" width="20.9" height="4.8"/>
	<rect x="9.4" y="34.7" width="18.4" height="4.8"/>
	<rect x="57.7" y="54.1" width="10.7" height="1.7"/>
	<rect x="57.7" y="51.2" width="10.7" height="1.7"/>
	<rect x="57.7" y="48.2" width="10.7" height="1.7"/>
	<rect x="57.7" y="45.3" width="10.7" height="1.7"/>
	<rect x="57.7" y="42.3" width="10.7" height="1.7"/>
	<rect x="9.5" y="44.5" width="4" height="9.8"/>
	<rect x="13.9" y="44.5" width="19.1" height="9.8"/>
	<rect x="33.5" y="44.5" width="1.2" height="9.8"/>
	<rect x="35.3" y="44.5" width="8.8" height="9.8"/>
	<path d="M79.5,1.4c-0.3-0.3-0.8-0.5-1.2-0.5H1.9c-1,0-1.7,0.8-1.7,1.8L0,63.1c0,0.5,0.2,0.9,0.5,1.2c0.3,0.3,0.8,0.5,1.2,0.5h31.8
		v11.6h-9.6v4.5h33v-4.5H47V64.8h31.3c0.5,0,0.9-0.2,1.2-0.5c0.3-0.3,0.5-0.8,0.5-1.2V2.7C80,2.2,79.8,1.7,79.5,1.4z M76.6,61.3H3.4
		L3.6,4.4h72.9V61.3z"/>
	<path d="M56,39.5c7.7,0,14-6.4,14-14.4s-6.2-14.4-14-14.4s-14,6.4-14,14.4S48.3,39.5,56,39.5z M44.1,25.1c0-1.7,0.3-3.3,0.9-4.8
		c0.6-1.5,1.5-2.8,2.6-3.9c1.1-1.1,2.4-2,3.8-2.6c1.5-0.6,3-1,4.7-1c1.6,0,3.2,0.3,4.7,1c1.4,0.6,2.7,1.5,3.8,2.6
		c1.1,1.1,2,2.5,2.6,3.9c0.6,1.5,0.9,3.1,0.9,4.8c0,1.7-0.3,3.3-0.9,4.8c-0.6,1.5-1.5,2.8-2.6,3.9c-1.1,1.1-2.4,2-3.8,2.6
		c-1.5,0.6-3,1-4.7,1c-1.6,0-3.2-0.3-4.7-1c-1.4-0.6-2.7-1.5-3.8-2.6c-1.1-1.1-2-2.5-2.6-3.9C44.4,28.4,44.1,26.7,44.1,25.1z"/>
	<path d="M56.2,24L56,24c-0.6,0-1,0.5-1,1.1c0,0.2,0.1,0.4,0.1,0.5l-0.6,0.9l0.8,0.6l0.5-0.9l0.2,0c0.6,0,1-0.5,1-1.1
		c0-0.3-0.1-0.6-0.3-0.7l1.9-4.1L56.2,24z"/>
	<path d="M47.9,30.1l0.9-0.6c0.5,0.9,1.2,1.7,1.9,2.3l0.7-0.8c-0.2-0.2-0.4-0.4-0.7-0.6c-1.4-1.5-2.1-3.4-2-5.4c0-2,0.9-3.9,2.3-5.3
		c1.4-1.4,3.3-2.1,5.2-2.1c2,0.1,3.8,0.9,5.1,2.4c1.4,1.5,2.1,3.4,2,5.4c0,2-0.9,3.9-2.3,5.3c-0.2,0.2-0.3,0.3-0.5,0.4l0.9,0.7
		c0.7-0.6,1.3-1.4,1.8-2.2l0.8,0.6l0.4-0.5l-0.9-0.6c0.5-1.1,0.8-2.3,0.9-3.6c0-1-0.1-2-0.4-2.9l1.2-0.5L65,21.3l-1.2,0.5
		c-0.6-1.6-1.7-2.9-3-3.8l0.7-0.9L61,16.6l-0.7,1c-1.1-0.7-2.5-1.1-3.9-1.2v-1.3h-0.6v1.3c-1.4,0-2.8,0.5-4,1.2l-0.8-1L50.5,17
		l0.7,0.9c-1.3,0.9-2.4,2.3-3,3.8L47,21.3l-0.2,0.6l1.3,0.5l0,0c-0.2,0.8-0.4,1.6-0.4,2.5c0,1.4,0.3,2.8,0.9,4l-0.9,0.6L47.9,30.1z"
		/>
</g>
</svg>
