<?xml version="1.0" encoding="utf-8"?>
<!-- Generator: Adobe Illustrator 26.3.1, SVG Export Plug-In . SVG Version: 6.00 Build 0)  -->
<svg version="1.1" id="Layer_1" xmlns="http://www.w3.org/2000/svg" xmlns:xlink="http://www.w3.org/1999/xlink" x="0px" y="0px"
	 viewBox="0 0 80 80" style="enable-background:new 0 0 80 80;" xml:space="preserve">
<g>
	<g>
		<path d="M62.2,64.06c-9.12,0.01-16.41-7.12-16.46-16.11c-0.05-8.97,7.24-16.29,16.27-16.34c9.11-0.05,16.55,7.24,16.56,16.24
			C78.59,56.81,71.28,64.05,62.2,64.06z M61.17,37.57c-0.26,0.02-0.8,0-1.3,0.14c-0.47,0.14-0.89,0.45-1.33,0.69
			c0.3,0.38,0.53,0.86,0.91,1.12c1.03,0.73,2.13,1.34,3.17,2.04c1.41,0.96,1.68,2.08,0.82,3.5c-0.79,1.3-1.61,2.58-2.47,3.84
			c-0.95,1.4-2.06,1.63-3.51,0.77c-1.26-0.75-2.47-1.59-3.74-2.33c-0.46-0.27-1.03-0.36-1.54-0.53c-0.09,0.58-0.34,1.19-0.25,1.74
			c0.86,5.21,4.68,8.28,10.03,8.32c0.87,0.01,1.8,0.59,2.59,1.08c0.56,0.34,0.98,0.95,1.37,1.5c0.57,0.82,1.2,0.8,2.01,0.39
			c2.76-1.39,4.83-3.44,6.29-6.18c0.7-1.32,0.66-2.26-0.65-3.16c-1.5-1.03-2.45-2.28-2.56-4.36C70.76,41.32,66.38,37.57,61.17,37.57
			z"/>
		<path d="M38.97,60.39c1.26,2.67,3.29,5.12,6.23,7.07c-0.44,0.06-0.69,0.12-0.94,0.12c-11.61,0-23.23,0.02-34.84-0.01
			c-3.95-0.01-6.14-2.84-5.59-7.07c0.05-0.4,0.91-0.96,1.42-0.99c2.07-0.11,4.14-0.05,6.22-0.05c3.4,0,6.8,0.05,10.2-0.02
			c1.97-0.04,3.87,0.06,5.67,1c0.41,0.22,0.96,0.23,1.45,0.25c1.28,0.03,2.57,0.05,3.86,0C34.69,60.63,36.73,60.5,38.97,60.39z"/>
		<path d="M69.86,27.61c-1.05,0-1.99,0-3.11,0c0-3.96,0-7.83,0-11.84c-0.94-0.06-1.72-0.15-2.49-0.15
			c-19.03-0.01-38.06-0.01-57.09,0c-2.55,0-2.55,0.01-2.55,2.62c0,11.19,0,22.38,0,33.56c0,2.42,0,2.43,2.36,2.43
			c11.43,0,22.86,0,34.29,0c0.72,0,1.44,0,2.27,0c0.18,1.08,0.33,2.01,0.52,3.17c-0.82,0-1.41,0-2.01,0c-12.59,0-25.17,0-37.76,0
			c-2.53,0-2.86-0.33-2.86-2.81c0-13.13,0-26.27,0-39.4c0-2.36,0.4-2.77,2.74-2.77c21.04,0,42.07,0,63.11,0
			c2.27,0,2.71,0.41,2.73,2.62c0.03,3.71,0.01,7.42,0,11.13C70,26.64,69.91,27.11,69.86,27.61z"/>
	</g>
</g>
<g>
	<path d="M40.03,40.24c-3.53-5.84-6.9-11.78-10.34-17.67c-1.62-2.78-4.93-2.79-6.55-0.01c-3.44,5.89-6.81,11.83-10.34,17.67
		c-1.6,2.64,0.18,5.88,3.35,5.79C19.57,45.92,22.98,46,26.4,46c3.44,0,6.88-0.06,10.33,0.01C39.82,46.09,41.62,42.88,40.03,40.24z
		 M15.31,41.78c3.43-5.9,6.86-11.79,10.3-17.68c0.55-0.94,1.05-0.94,1.6,0.01c3.43,5.89,6.87,11.79,10.3,17.68
		c0.53,0.9,0.31,1.28-0.72,1.28c-3.46,0-6.93,0-10.39,0c-3.44,0-6.88,0-10.32,0.01C14.98,43.08,14.76,42.72,15.31,41.78z"/>
	<path d="M30.17,33.71c-0.23-0.06-0.45-0.16-0.68-0.16c-1-0.02-2.01-0.01-3.1-0.01c0.6-1.56,1.17-3,1.71-4.45
		c0.08-0.24,0.02-0.53,0.03-0.79c-0.21,0.13-0.47,0.22-0.63,0.4c-1.77,2.05-3.54,4.12-5.3,6.19c-0.15,0.18-0.25,0.38-0.51,0.77
		c1.17,0,2.13,0,3.2,0c-0.14,0.41-0.22,0.67-0.3,0.92c-0.58,1.49-1.17,2.98-1.74,4.48c-0.08,0.2-0.03,0.45-0.04,0.68
		c0.21-0.1,0.49-0.15,0.64-0.32c2.15-2.35,4.29-4.72,6.42-7.09C30.02,34.16,30.07,33.92,30.17,33.71z"/>
</g>
</svg>
