<?xml version="1.0" encoding="utf-8"?>
<!-- Generator: Adobe Illustrator 26.3.1, SVG Export Plug-In . SVG Version: 6.00 Build 0)  -->
<svg version="1.1" id="Layer_1" xmlns="http://www.w3.org/2000/svg" xmlns:xlink="http://www.w3.org/1999/xlink" x="0px" y="0px"
	 viewBox="0 0 80 80" style="enable-background:new 0 0 80 80;" xml:space="preserve">
<g>
	<path d="M11.7,31.64l1.92,0.14c2-2.26,2.78-8.93,14.54-7.63c-0.43,28.61-12.97,31.62-12.19,37.49c0.29,3.33,2.92,5.37,5.77,5.49
		c9.01-0.31,8.6-12.45,11.4-43.05h11.62c-0.62,10.79-2.3,21.57-2.49,32.15c0.14,7.03,4.42,10.79,10.05,10.83
		c9.27,0.31,12.19-10.5,12.19-15.11h-2c-0.19,3.8-2.02,6.53-5.92,6.7c-10.62,0.14-4.78-18.68-4.7-34.43l12.62,0.07l-0.07-8.05
		C12,15.99,18.66,14.96,11.7,31.64z"/>
	<path d="M40,1.02C18.47,1.02,1.02,18.47,1.02,40c0,21.53,17.45,38.98,38.98,38.98c21.53,0,38.98-17.45,38.98-38.98
		C78.98,18.47,61.53,1.02,40,1.02z M65.47,65.47C58.94,71.99,49.95,76.02,40,76.02c-9.95,0-18.94-4.03-25.47-10.55
		C8.01,58.94,3.98,49.95,3.98,40c0-9.95,4.03-18.94,10.55-25.47C21.06,8.01,30.05,3.98,40,3.98c9.95,0,18.94,4.03,25.47,10.55
		C71.99,21.06,76.02,30.05,76.02,40C76.02,49.95,71.99,58.94,65.47,65.47z"/>
</g>
</svg>
