<?xml version="1.0" encoding="utf-8"?>
<!-- Generator: Adobe Illustrator 26.0.1, SVG Export Plug-In . SVG Version: 6.00 Build 0)  -->
<svg version="1.1" id="Layer_1" xmlns="http://www.w3.org/2000/svg" xmlns:xlink="http://www.w3.org/1999/xlink" x="0px" y="0px"
	 viewBox="0 0 80 80" style="enable-background:new 0 0 80 80;" xml:space="preserve">
<g>
	<path d="M76,8H62.9V6.7c0-0.3-0.1-0.7-0.4-0.9c-0.2-0.2-0.6-0.4-0.9-0.4H56c-0.2-0.6-0.6-1.3-1.2-2.1c-0.6-0.8-1.3-1.6-2.4-2.2
		c-1-0.6-2.3-1-3.8-1c-1.6,0-2.9,0.4-4,1C43,1.9,42,3.2,41.3,4.3c-0.2,0.4-0.4,0.8-0.6,1.1h-5.9c-0.3,0-0.7,0.1-0.9,0.4
		c-0.2,0.2-0.4,0.6-0.4,0.9V8H20.5c-2.2,0-4,1.8-4,4v12.1h-0.1c-0.4,0-0.7,0.1-0.9,0.4c-0.2,0.3-0.4,0.6-0.4,1l0.2,4.8l-0.9,0.4
		l-3.5-3.5c-0.5-0.5-1.3-0.5-1.8-0.1l-5.6,5.1C3.2,32.5,3,32.8,3,33.2c0,0.4,0.1,0.7,0.4,1L7.2,38l-0.3,0.9H1.3
		c-0.3,0-0.7,0.1-0.9,0.4S0,39.9,0,40.2v7.7c0,0.3,0.1,0.7,0.4,0.9C0.6,49,1,49.2,1.3,49.2h5.3L7,50l-3.7,3.3
		c-0.3,0.2-0.4,0.6-0.4,0.9c0,0.4,0.1,0.7,0.4,1L9,61c0.2,0.2,0.6,0.4,0.9,0.4c0.4,0,0.7-0.1,0.9-0.4l3.4-3.4l0.6,0.3v4.8
		c0,0.3,0.1,0.7,0.4,0.9s0.6,0.4,0.9,0.4h0.3l0,12.1c0,2.2,1.8,4,4,4H76c2.2,0,4-1.8,4-4V12.1C80,9.8,78.2,8,76,8z M64.3,69.9v-5.8
		h5.9L64.3,69.9z M72,61.5h-9c-0.3,0-0.7,0.1-0.9,0.4c-0.2,0.2-0.4,0.6-0.4,0.9v9H24.2v-8c0.3,0,0.6-0.1,0.8-0.4
		c0.2-0.2,0.4-0.6,0.4-0.9v-4.8l0.9-0.3l3.5,3.7c0.2,0.3,0.6,0.4,0.9,0.4c0.4,0,0.7-0.1,1-0.4l5.7-5.8c0.3-0.3,0.4-0.6,0.4-1
		c0-0.4-0.2-0.7-0.4-0.9l-3.7-3.4l0.3-0.6h5.4c0.3,0,0.7-0.1,0.9-0.4c0.2-0.2,0.4-0.6,0.4-0.9v-7.9c0-0.3-0.1-0.7-0.4-0.9
		C40,39.1,39.6,39,39.3,39h-5.4l-0.3-0.6l3.6-3.8c0.5-0.5,0.5-1.3,0-1.8l-5.4-5.6c-0.2-0.3-0.6-0.4-0.9-0.4c-0.4,0-0.7,0.1-0.9,0.4
		l-3.5,3.7l-0.8-0.6l0.2-4.7c0-0.4-0.1-0.7-0.4-1c-0.2-0.3-0.6-0.4-1-0.4h-0.2v-8.1h9.3v1.3c0,0.3,0.1,0.7,0.4,0.9
		c0.2,0.2,0.6,0.4,0.9,0.4h26.7c0.3,0,0.7-0.1,0.9-0.4c0.2-0.2,0.4-0.6,0.4-0.9v-1.3H72V61.5z M36.2,7.9h5.5c0.6,0,1.1-0.4,1.2-0.9
		l0,0c0,0,0-0.1,0.1-0.2c0.2-0.4,0.7-1.6,1.6-2.5c0.5-0.5,1-0.9,1.7-1.2c0.7-0.3,1.4-0.5,2.4-0.5c1,0,1.8,0.3,2.5,0.7
		c1,0.6,1.7,1.5,2.1,2.3c0.2,0.4,0.4,0.8,0.5,1c0,0.1,0.1,0.2,0.1,0.3l0,0.1l0,0l0,0c0.1,0.6,0.7,1,1.3,1h5.3v8.2H36.2V7.9z
		 M19.1,12.1c0-0.8,0.6-1.4,1.4-1.4h13.1v2.9H22.9c-0.3,0-0.7,0.1-0.9,0.4c-0.2,0.2-0.4,0.6-0.4,0.9v9.4h-2.6V12.1z M14.5,54.8
		c-0.5-0.2-1.1-0.1-1.4,0.3l-3.1,3.1l-3.9-3.9l3.4-3c0.4-0.4,0.6-1,0.3-1.5l-1.2-2.5c-0.2-0.5-0.7-0.8-1.2-0.8H2.6v-5h5.2
		c0.6,0,1.1-0.4,1.2-0.9l0.9-2.6c0.2-0.5,0-1-0.3-1.3l-3.4-3.4L9.9,30l3.3,3.3c0.4,0.4,1,0.5,1.5,0.3l2.5-1.2
		c0.5-0.2,0.7-0.7,0.7-1.2l-0.2-4.3h5.3l-0.2,4.1c0,0.5,0.2,0.9,0.6,1.2l2.4,1.6c0.5,0.4,1.2,0.3,1.7-0.2l3.4-3.5l3.5,3.7L31,37.2
		c-0.4,0.4-0.5,1-0.2,1.5l1.1,2.2c0.2,0.4,0.7,0.7,1.2,0.7H38v5.2H33c-0.5,0-1,0.3-1.2,0.8l-1,2.2c-0.2,0.5-0.1,1.1,0.3,1.5l3.4,3.2
		l-3.8,3.9L27.6,55c-0.4-0.4-0.9-0.5-1.5-0.3l-2.5,1c-0.5,0.2-0.8,0.7-0.8,1.2v4.4h-5.2v-4.3c0-0.5-0.3-1-0.8-1.2L14.5,54.8z
		 M77.4,76c0,0.8-0.6,1.4-1.4,1.4H20.5c-0.8,0-1.4-0.6-1.4-1.4V63.9h2.6l0,9.2c0,0.3,0.1,0.7,0.4,0.9c0.2,0.2,0.6,0.4,0.9,0.4h39.9
		c0,0,0.1,0,0.1,0c0,0,0.1,0,0.1,0c0.5,0,1-0.3,1.2-0.8l10-9.8c0.2-0.2,0.4-0.6,0.4-0.9v-48c0-0.3-0.1-0.7-0.4-0.9s-0.6-0.4-0.9-0.4
		H62.9v-2.9H76c0.8,0,1.4,0.6,1.4,1.4V76z"/>
	<path d="M57.3,64H31.1c-0.7,0-1.3,0.6-1.3,1.3s0.6,1.3,1.3,1.3h26.2c0.7,0,1.3-0.6,1.3-1.3S58,64,57.3,64z"/>
	<path d="M65.3,56.1H52.2c-0.7,0-1.3,0.6-1.3,1.3s0.6,1.3,1.3,1.3h13.1c0.7,0,1.3-0.6,1.3-1.3S66,56.1,65.3,56.1z"/>
	<path d="M45.6,58.7H47c0.7,0,1.3-0.6,1.3-1.3s-0.6-1.3-1.3-1.3h-1.4c-0.7,0-1.3,0.6-1.3,1.3S44.9,58.7,45.6,58.7z"/>
	<path d="M65.3,50.8H52.2c-0.7,0-1.3,0.6-1.3,1.3s0.6,1.3,1.3,1.3h13.1c0.7,0,1.3-0.6,1.3-1.3S66,50.8,65.3,50.8z"/>
	<path d="M45.6,53.4H47c0.7,0,1.3-0.6,1.3-1.3s-0.6-1.3-1.3-1.3h-1.4c-0.7,0-1.3,0.6-1.3,1.3S44.9,53.4,45.6,53.4z"/>
	<path d="M65.3,42.9H52.2c-0.7,0-1.3,0.6-1.3,1.3s0.6,1.3,1.3,1.3h13.1c0.7,0,1.3-0.6,1.3-1.3S66,42.9,65.3,42.9z"/>
	<path d="M45.6,45.5H47c0.7,0,1.3-0.6,1.3-1.3s-0.6-1.3-1.3-1.3h-1.4c-0.7,0-1.3,0.6-1.3,1.3S44.9,45.5,45.6,45.5z"/>
	<path d="M65.3,37.5H52.2c-0.7,0-1.3,0.6-1.3,1.3s0.6,1.3,1.3,1.3h13.1c0.7,0,1.3-0.6,1.3-1.3S66,37.5,65.3,37.5z"/>
	<path d="M45.6,40.1H47c0.7,0,1.3-0.6,1.3-1.3s-0.6-1.3-1.3-1.3h-1.4c-0.7,0-1.3,0.6-1.3,1.3S44.9,40.1,45.6,40.1z"/>
	<path d="M65.3,29.5H52.2c-0.7,0-1.3,0.6-1.3,1.3s0.6,1.3,1.3,1.3h13.1c0.7,0,1.3-0.6,1.3-1.3S66,29.5,65.3,29.5z"/>
	<path d="M45.6,32.1H47c0.7,0,1.3-0.6,1.3-1.3s-0.6-1.3-1.3-1.3h-1.4c-0.7,0-1.3,0.6-1.3,1.3S44.9,32.1,45.6,32.1z"/>
	<path d="M52.2,24.1c-0.7,0-1.3,0.6-1.3,1.3s0.6,1.3,1.3,1.3h13.1c0.7,0,1.3-0.6,1.3-1.3s-0.6-1.3-1.3-1.3H52.2z"/>
	<path d="M45.6,26.7H47c0.7,0,1.3-0.6,1.3-1.3s-0.6-1.3-1.3-1.3h-1.4c-0.7,0-1.3,0.6-1.3,1.3S44.9,26.7,45.6,26.7z"/>
	<path d="M24.6,41.1c-0.5-0.5-1.3-0.5-1.8,0L19,44.9l-1.2-1c-0.5-0.5-1.4-0.4-1.8,0.1c-0.5,0.5-0.4,1.4,0.1,1.8l2.1,1.8
		c0.5,0.4,1.3,0.4,1.8-0.1l4.6-4.7C25.1,42.4,25.1,41.6,24.6,41.1z"/>
	<path d="M29.6,44.1c0-5.1-4.2-9.3-9.3-9.3c-5.1,0-9.3,4.2-9.3,9.3c0,5.1,4.2,9.3,9.3,9.3C25.4,53.4,29.6,49.3,29.6,44.1z
		 M13.6,44.1c0-1.9,0.7-3.5,2-4.7c1.2-1.2,2.9-2,4.7-2c1.8,0,3.5,0.7,4.7,2c1.2,1.2,2,2.9,2,4.7c0,1.9-0.7,3.5-2,4.7
		c-1.2,1.2-2.9,2-4.7,2c-1.8,0-3.5-0.7-4.7-2C14.4,47.6,13.6,46,13.6,44.1z"/>
</g>
</svg>
